HIERARCHY
ROOT Hips
{
	OFFSET 0.000000 0.000000 0.000000
	CHANNELS 6 Xposition Yposition Zposition Zrotation Yrotation Xrotation 
	JOINT LowerBack
	{
		OFFSET 0.000000 0.000000 0.000000
		CHANNELS 3 Zrotation Yrotation Xrotation
		JOINT Spine
		{
			OFFSET 0.028270 2.035590 -0.193380
			CHANNELS 3 Zrotation Yrotation Xrotation
			JOINT Spine1
			{
				OFFSET 0.056720 2.048850 -0.042750
				CHANNELS 3 Zrotation Yrotation Xrotation
				JOINT Neck
				{
					OFFSET 0.000000 0.000000 0.000000
					CHANNELS 3 Zrotation Yrotation Xrotation
					JOINT Neck1
					{
						OFFSET -0.054170 1.746240 0.172020
						CHANNELS 3 Zrotation Yrotation Xrotation
						JOINT Head
						{
							OFFSET 0.104070 1.761360 -0.123970
							CHANNELS 3 Zrotation Yrotation Xrotation
							End Site
							{
								OFFSET 0.000000 0.000000 0.000000
							}
						}
					}
				}
				JOINT LeftShoulder
				{
					OFFSET 0.000000 0.000000 0.000000
					CHANNELS 3 Zrotation Yrotation Xrotation
					JOINT LeftArm
					{
						OFFSET 3.362410 1.200890 -0.311210
						CHANNELS 3 Zrotation Yrotation Xrotation
						JOINT LeftForeArm
						{
							OFFSET 4.983000 -0.000000 -0.000000
							CHANNELS 3 Zrotation Yrotation Xrotation
							JOINT LeftHand
							{
								OFFSET 3.483560 -0.000000 -0.000000
								CHANNELS 3 Zrotation Yrotation Xrotation
								JOINT LeftFingerBase
								{
									OFFSET 0.000000 0.000000 0.000000
									CHANNELS 3 Zrotation Yrotation Xrotation
									JOINT LeftHandIndex1
									{
										OFFSET 0.715260 -0.000000 -0.000000
										CHANNELS 3 Zrotation Yrotation Xrotation
										End Site
										{
											OFFSET 0.000000 0.000000 0.000000
										}
									}
								}
								JOINT LThumb
								{
									OFFSET 0.000000 0.000000 0.000000
									CHANNELS 3 Zrotation Yrotation Xrotation
									End Site
									{
										OFFSET 0.000000 0.000000 0.000000
									}
								}
							}
						}
					}
				}
				JOINT RightShoulder
				{
					OFFSET 0.000000 0.000000 0.000000
					CHANNELS 3 Zrotation Yrotation Xrotation
					JOINT RightArm
					{
						OFFSET -3.136600 1.374050 -0.404650
						CHANNELS 3 Zrotation Yrotation Xrotation
						JOINT RightForeArm
						{
							OFFSET -5.241900 -0.000000 -0.000000
							CHANNELS 3 Zrotation Yrotation Xrotation
							JOINT RightHand
							{
								OFFSET -3.444170 -0.000000 -0.000000
								CHANNELS 3 Zrotation Yrotation Xrotation
								JOINT RightFingerBase
								{
									OFFSET 0.000000 0.000000 0.000000
									CHANNELS 3 Zrotation Yrotation Xrotation
									JOINT RightHandIndex1
									{
										OFFSET -0.622530 -0.000000 -0.000000
										CHANNELS 3 Zrotation Yrotation Xrotation
										End Site
										{
											OFFSET 0.000000 0.000000 0.000000
										}
									}
								}
								JOINT RThumb
								{
									OFFSET 0.000000 0.000000 0.000000
									CHANNELS 3 Zrotation Yrotation Xrotation
									End Site
									{
										OFFSET 0.000000 0.000000 0.000000
									}
								}
							}
						}
					}
				}
			}
		}
	}
}
}
MOTION
Frames: 7
Frame Time: 0.008333
-21.587320 16.387023 -0.163043 9.510211 83.735030 14.879260 -7.308852 1.358605 -5.765724 -2.220122 1.677393 -3.485844 -5.583773 1.555778 2.728498 8.249147 -11.097148 -9.952761 -1.940837 -0.127857 -0.589784 0.000000 0.000000 0.000000 -4.302368 29.152972 0.770187 -72.698144 24.948596 5.559338 -3.646791 -25.826891 -0.010838 -2.683885 3.960948 -0.093425 -0.069477 -0.123940 -0.000000 0.000000 0.000000 0.000000 0.000000 0.000000 0.000000 10.286603 -4.418067 -0.501964 52.176725 14.396728 20.141573 1.584742 52.362936 0.013087 4.435694 3.678924 0.148517 0.008535 -0.146556 0.000000 0.000000 0.000000 0.000000 0.000000 0.000000 0.000000 
-21.407494 16.408113 -0.171656 9.564545 83.581873 14.728774 -7.573089 1.362330 -5.836618 -2.286017 1.701102 -3.508699 -5.615217 1.578190 2.698994 8.326052 -11.205240 -9.907857 -1.932655 -0.128064 -0.576850 0.000000 0.000000 0.000000 -4.359329 29.162749 0.718934 -72.364400 24.842524 5.557657 -3.660450 -25.821830 -0.010987 -2.735160 3.981709 -0.095727 -0.069659 -0.123874 -0.000000 0.000000 0.000000 0.000000 0.000000 0.000000 0.000000 10.342025 -4.511051 -0.540397 52.513375 13.750611 20.444124 1.584913 52.491640 0.013076 4.487675 3.659375 0.149420 0.008412 -0.144804 0.000000 0.000000 0.000000 0.000000 0.000000 0.000000 0.000000 
-21.227780 16.430931 -0.180952 9.620446 83.401724 14.564043 -7.829956 1.363075 -5.897066 -2.349808 1.721653 -3.529528 -5.644395 1.597670 2.670378 8.401499 -11.309939 -9.868491 -1.925454 -0.128251 -0.565678 0.000000 0.000000 0.000000 -4.426969 29.179399 0.669324 -72.035365 24.701606 5.536522 -3.673529 -25.785607 -0.011096 -2.768085 4.003798 -0.097428 -0.069891 -0.123684 -0.000000 0.000000 0.000000 0.000000 0.000000 0.000000 0.000000 10.403465 -4.600492 -0.575513 52.839253 13.118489 20.781144 1.586127 52.580789 0.013051 4.555118 3.624961 0.150220 0.008149 -0.142619 0.000000 0.000000 0.000000 0.000000 0.000000 0.000000 0.000000 
-21.048769 16.454909 -0.190721 9.740670 83.198553 14.446721 -8.085507 1.357582 -5.939800 -2.411933 1.736362 -3.548150 -5.669953 1.611411 2.637499 8.472803 -11.412730 -9.832877 -1.919123 -0.128425 -0.555760 0.000000 0.000000 0.000000 -4.511963 29.170954 0.621845 -71.719696 24.558193 5.473597 -3.685340 -25.749650 -0.011152 -2.780305 4.025699 -0.098330 -0.070115 -0.123381 -0.000000 0.000000 0.000000 0.000000 0.000000 0.000000 0.000000 10.466021 -4.690632 -0.603793 53.154415 12.516131 21.159522 1.589286 52.626064 0.013026 4.643027 3.579229 0.151217 0.007752 -0.140052 0.000000 0.000000 0.000000 0.000000 0.000000 0.000000 0.000000 
-20.871332 16.479477 -0.201308 9.782438 82.966462 14.236518 -8.322503 1.346199 -5.963528 -2.468860 1.744133 -3.562469 -5.691735 1.618608 2.607009 8.540087 -11.501458 -9.806339 -1.913977 -0.128510 -0.548647 0.000000 0.000000 0.000000 -4.599885 29.175633 0.580266 -71.429939 24.368730 5.400047 -3.695701 -25.677720 -0.011140 -2.768776 4.041824 -0.098330 -0.070388 -0.122856 -0.000000 0.000000 0.000000 0.000000 0.000000 0.000000 0.000000 10.531407 -4.767558 -0.627894 53.442988 11.949023 21.576890 1.592130 52.643112 0.012983 4.756087 3.516438 0.152211 0.007003 -0.137046 0.000000 0.000000 0.000000 0.000000 0.000000 0.000000 0.000000 
-20.696291 16.504068 -0.212348 9.868569 82.720423 14.057842 -8.554908 1.323665 -5.962244 -2.522418 1.740854 -3.572612 -5.708326 1.614923 2.572972 8.603137 -11.593233 -9.786695 -1.909476 -0.128494 -0.543646 0.000000 0.000000 0.000000 -4.699793 29.143770 0.543085 -71.170399 24.181557 5.287185 -3.704292 -25.615581 -0.011071 -2.737313 4.054204 -0.097429 -0.070622 -0.122175 -0.000000 0.000000 0.000000 0.000000 0.000000 0.000000 0.000000 10.598547 -4.854171 -0.642758 53.706857 11.447377 22.053814 1.596163 52.619409 0.012937 4.887033 3.446762 0.153302 0.006138 -0.133723 0.000000 0.000000 0.000000 0.000000 0.000000 0.000000 0.000000 
-20.524032 16.528173 -0.223986 9.898772 82.465102 13.812686 -8.769888 1.289068 -5.934929 -2.569895 1.724505 -3.576948 -5.719944 1.598523 2.540376 8.660811 -11.659728 -9.774653 -1.906270 -0.128391 -0.541088 0.000000 0.000000 0.000000 -4.786799 29.111678 0.516134 -70.953170 23.950039 5.172357 -3.711919 -25.519742 -0.010948 -2.688802 4.060663 -0.095727 -0.070908 -0.121220 -0.000000 0.000000 0.000000 0.000000 0.000000 0.000000 0.000000 10.663071 -4.919939 -0.653913 53.943716 10.980131 22.552339 1.598969 52.582663 0.012874 5.049087 3.361154 0.154388 0.004779 -0.130035 0.000000 0.000000 0.000000 0.000000 0.000000 0.000000 0.000000 
